<?xml version="1.0" encoding="UTF-8" standalone="no"?>
<svg
   xmlns:dc="http://purl.org/dc/elements/1.1/"
   xmlns:cc="http://creativecommons.org/ns#"
   xmlns:rdf="http://www.w3.org/1999/02/22-rdf-syntax-ns#"
   xmlns:svg="http://www.w3.org/2000/svg"
   xmlns="http://www.w3.org/2000/svg"
   xmlns:sodipodi="http://sodipodi.sourceforge.net/DTD/sodipodi-0.dtd"
   xmlns:inkscape="http://www.inkscape.org/namespaces/inkscape"
   version="1.1"
   x="0px"
   y="0px"
   viewBox="0 0 84.863 112.5"
   enable-background="new 0 0 84.863 90"
   xml:space="preserve"
   id="svg8"
   sodipodi:docname="noun_Paper_88662.svg"
   inkscape:version="0.92.5 (2060ec1f9f, 2020-04-08)"><metadata
     id="metadata14"><rdf:RDF><cc:Work
         rdf:about=""><dc:format>image/svg+xml</dc:format><dc:type
           rdf:resource="http://purl.org/dc/dcmitype/StillImage" /></cc:Work></rdf:RDF></metadata><defs
     id="defs12" /><sodipodi:namedview
     pagecolor="#ffffff"
     bordercolor="#666666"
     borderopacity="1"
     objecttolerance="10"
     gridtolerance="10"
     guidetolerance="10"
     inkscape:pageopacity="0"
     inkscape:pageshadow="2"
     inkscape:window-width="1440"
     inkscape:window-height="766"
     id="namedview10"
     showgrid="false"
     inkscape:zoom="4.1955555"
     inkscape:cx="49.640935"
     inkscape:cy="69.399738"
     inkscape:window-x="0"
     inkscape:window-y="27"
     inkscape:window-maximized="1"
     inkscape:current-layer="svg8" /><path
     d="M72.158,61.501V22.412c0-3.862-3.129-6.996-6.992-6.996c-1.42,0.001-2.727,0.439-3.828,1.163v-4.447  c0-3.864-3.133-6.994-6.996-6.996c-1.527,0.001-2.938,0.495-4.088,1.327c-0.822-2.949-3.521-5.113-6.73-5.113  c-3.861,0.001-6.991,3.131-6.993,6.997v1.201c-1.102-0.725-2.408-1.162-3.825-1.164c-3.864,0.002-6.995,3.131-6.997,6.995v22.014  c-0.898-1.271-2.475-2.286-4.441-2.26c-1.185,0.002-2.474,0.322-3.908,0.975c-0.479,0.218-0.801,0.677-0.843,1.203  c0,0-0.004,0.05-0.028,0.224c-0.17,1.214-1.236,7.072-6.974,14.417C9.289,52.24,9.182,52.6,9.212,52.965  c0.008,0.063,0.745,9.061,3.72,18.184c1.494,4.564,3.536,9.17,6.437,12.739C22.241,87.438,26.125,90,30.989,90h0.029  c0.094-0.002,0.144-0.002,0.158-0.002L56.102,90c8.869-0.002,16.058-7.189,16.058-16.055V61.52c0-0.007,0.002-0.013,0.002-0.019  H72.158z M25.708,49.645v8.983l-1.17-0.347c-0.121-0.121-0.456-0.542-0.479-1.952C24.055,55.018,24.427,52.877,25.708,49.645z   M56.102,87.102c0,0-25.046,0.002-25.083,0.002c-3.824-0.014-6.827-1.912-9.401-5.047c-3.836-4.688-6.294-12.068-7.696-18.238  c-0.707-3.088-1.162-5.872-1.442-7.881c-0.168-1.205-0.27-2.121-0.326-2.662c5.289-6.932,6.744-12.676,7.125-14.828  c0.818-0.304,1.479-0.416,1.989-0.414c1.076,0.025,1.58,0.39,2.128,1.11c1.015,1.352,1.276,4.155,1.248,5.395  c0,0.149-0.002,0.274-0.004,0.371c-2.645,5.475-3.47,8.996-3.478,11.42c-0.072,3.228,1.769,4.526,2.212,4.623l3.373,1.009  c0.225,0.066,1.185,0.135,1.185,0.135s0.515,0.014,1.41,0.139c2.747,0.361,8.297,1.832,10.297,6.32  c0.244,0.53,0.77,0.844,1.316,0.844c0.204,0,0.409-0.043,0.605-0.136c0.727-0.334,1.045-1.194,0.71-1.921  c-1.874-4.04-5.534-6.047-8.567-7.058c-2.214-0.733-4.156-0.972-5.095-1.048V15.379c0.004-2.263,1.835-4.092,4.097-4.096  c1.746-0.004,3.237,1.096,3.826,2.638c0,0-0.001,31.867-0.001,31.881c-0.003,0.802,0.64,1.453,1.44,1.457  c0.8,0.005,1.454-0.641,1.458-1.442V8.347c0.004-2.265,1.835-4.094,4.095-4.098c2.263,0.004,4.093,1.833,4.097,4.098v39.627  c0,0.799,0.649,1.449,1.449,1.449c0.801,0,1.45-0.65,1.45-1.449h-0.002v-37.3c0.59-1.543,2.076-2.641,3.824-2.639  c2.264,0.004,4.094,1.835,4.098,4.097v37.354c0,0.799,0.648,1.45,1.449,1.45s1.451-0.651,1.451-1.45h-0.002V20.95  c0.592-1.54,2.08-2.637,3.828-2.635c2.262,0.004,4.09,1.834,4.094,4.097v39.093v12.44C69.246,81.21,63.369,87.088,56.102,87.102z"
     id="path2" /><path
     style="fill:#ffffff;stroke-width:0.23834746"
     d="m 29.452905,86.843969 c -4.258021,-0.637501 -8.343523,-4.490652 -11.236218,-10.59719 -2.25021,-4.750241 -4.078066,-11.012282 -5.180914,-17.749271 -0.880574,-5.379173 -0.939552,-4.818446 0.776686,-7.384247 0.827275,-1.236792 2.037189,-3.310942 2.688698,-4.609225 1.118133,-2.228139 2.821981,-6.826081 2.821981,-7.615292 0,-0.475387 0.507117,-0.65077 1.881681,-0.65077 0.929933,0 1.242329,0.119698 1.781699,0.68268 0.756386,0.789497 1.269637,2.316615 1.484965,4.418344 0.131321,1.281764 0.07253,1.634322 -0.443135,2.657417 -1.547708,3.070692 -3.036777,8.198826 -3.036777,10.45821 0,1.268499 0.684134,3.167044 1.39874,3.88165 0.801753,0.801754 3.475798,1.629987 6.425737,1.990249 5.053221,0.617127 8.922306,2.795268 10.51666,5.920461 0.658988,1.291719 1.923281,1.654214 2.715671,0.778631 0.699219,-0.772627 0.482263,-1.747816 -0.792765,-3.563392 -1.245225,-1.773134 -3.046481,-3.242093 -5.465297,-4.457053 -1.383909,-0.695131 -5.359102,-1.79262 -6.493011,-1.79262 h -0.690345 l 0.06545,-22.464249 0.06545,-22.464248 0.548296,-0.881788 c 1.564313,-2.515783 5.030875,-2.621029 6.660904,-0.202228 l 0.537093,0.79699 v 16.254614 c 0,15.444503 0.02171,16.274271 0.435875,16.649073 0.591235,0.535059 1.60686,0.496854 2.185947,-0.08223 0.468905,-0.468906 0.476695,-0.794491 0.476695,-19.925579 0,-21.6452711 -0.09067,-20.4313754 1.623832,-21.739094 0.70328,-0.5364168 1.083006,-0.6420017 2.308901,-0.6420017 1.249617,0 1.600734,0.1018585 2.367731,0.6868749 1.644617,1.2544106 1.565002,0.098103 1.565002,22.7296608 0,22.70114 -0.08435,21.511961 1.525833,21.511961 1.671171,0 1.572507,1.24102 1.574254,-19.801607 0.0014,-18.331312 0.01618,-18.952028 0.46382,-19.63109 1.463341,-2.2198947 4.939863,-2.3750608 6.446686,-0.2877325 0.907038,1.2564745 0.916684,1.4750135 0.935256,21.1889145 0.01783,18.91636 0.02631,19.254735 0.494829,19.723252 0.637656,0.637656 1.327486,0.600962 2.036786,-0.108341 L 61.510637,49.93867 V 35.287752 20.636837 l 0.644327,-0.765739 c 1.806755,-2.147205 5.189785,-1.768803 6.44651,0.721062 l 0.536282,1.062499 -0.0035,26.823172 c -0.0031,23.154922 -0.05306,27.033322 -0.365715,28.359825 -1.084265,4.600164 -4.449376,8.157528 -9.164661,9.688253 -1.187773,0.385586 -2.598249,0.430567 -15.01589,0.478866 -7.537738,0.02932 -14.348517,-0.04305 -15.135063,-0.160806 z"
     id="path7"
     inkscape:connector-curvature="0" /></svg>